# xmcd
#
# Track frame offsets:
#	150
#	11678
#	27686
#	39676
#	63920
#	75248
#	99885
#	111084
#	127872
#	139540
#	152902
#	168793
#	186792
#	193488
#	205969
#	220717
#	230246
#	239719
#	251969
#	261854
#
# Disc length: 3642 seconds
#
# Revision: 1
# Processed by: cddbd v1.5.1PL0 Copyright (c) Steve Scherf et al.
# Submitted via: EasyCDDAExtractor 7.0.4.1
#
DISCID=1e0e3814
DTITLE=Accardi_Gold and Friends - No Bread, Lotsa Jam
DYEAR=1998
DGENRE=Blues
TTITLE0=The Blues Ain't Nothin' But a Deeper Shade of Purple
TTITLE1=Preacher Can You Spare a Prayer
TTITLE2=Politically Correct Blues
TTITLE3=Going Down the Road
TTITLE4=Taxman Blues (I.R.S. - I.O.U.)
TTITLE5=Don't Cry For Me, I Can Cry For My Own Self
TTITLE6=Hobo Stew, Hold the Hobo!
TTITLE7=Ahead By a Noose
TTITLE8=Abraham Jefferson Lincoln, Jr.
TTITLE9=Full House, Empty Heart
TTITLE10=Behind the Eight Ball
TTITLE11=Y2K Blues
TTITLE12=Tuesday's Child Has Monday's Blues
TTITLE13=The Check is in the Mail
TTITLE14=You Never Lose the Blues
TTITLE15=Service With a Smirk
TTITLE16=Manhattan Chowder Ramble
TTITLE17=Which Way to Philadelphia
TTITLE18=Drive All Day, Play All Night
TTITLE19=Cincinatti Boggie-Woogie
EXTD=
EXTT0=
EXTT1=
EXTT2=
EXTT3=
EXTT4=
EXTT5=
EXTT6=
EXTT7=
EXTT8=
EXTT9=
EXTT10=
EXTT11=
EXTT12=
EXTT13=
EXTT14=
EXTT15=
EXTT16=
EXTT17=
EXTT18=
EXTT19=
PLAYORDER=
